<svg width="35" height="43" xmlns="http://www.w3.org/2000/svg">
 <g>
  <title>Layer 1</title>
  <rect id="svg_4" height="10.61856" width="13.71134" y="31.12887" x="5.74742" stroke="null" fill="#ffffff"/>
  <g stroke="null" id="svg_3">
   <g stroke="null" transform="matrix(1.18187 -0.00334815 0.00398532 0.99291 -3.56712 0.118213)" id="svg_35">
    <path stroke="null" id="svg_6" d="m13.87368,43.34823c-6.09347,-0.4431 -10.61835,-3.27592 -9.71622,-7.35097c0.56885,-2.56963 12.53587,-26.1578 14.17364,-20.88138c1.63776,5.27641 -0.12807,-0.73743 5.46908,5.25509c5.59715,5.99252 9.10433,13.63512 9.10433,16.25525c0,5.31091 -4.03937,6.94896 -14.6156,6.92341c-10.57623,-0.02555 -4.29851,-0.19569 -4.97052,-0.37808l0.55529,0.17668zm4.99334,-2.84787c0.18332,-0.68757 -0.2449,-1.0229 -1.30627,-1.0229c-2.41898,0 -5.0341,-0.97623 -6.52416,-4.30273c-1.49006,-3.3265 -2.92005,-2.49431 -3.23324,-0.40426c-0.6034,4.02676 10.04712,9.54269 11.06367,5.7299l0,0l0,-0.00001z" fill="#ff0000"/>
    <path stroke="null" id="svg_5" d="m11.05304,34.27711l2.63763,-22.08491l8.79209,0l2.63763,22.08491l-14.06735,0z" fill="#ff0000"/>
    <ellipse stroke="null" ry="0.89023" rx="4.51975" id="svg_13" cy="12.15328" cx="18.11798" fill="#ffaaaa"/>
   </g>
   <path stroke="null" id="svg_39" d="m7.09431,10.6511c-0.15261,0.51379 0.21961,1.07568 0.83665,1.25921c0.61646,0.18262 1.24201,-0.08396 1.39816,-0.59812l-0.00198,0.00084c0.34477,-1.13237 1.20202,-2.10517 2.50354,-2.65982c1.30053,-0.55423 2.78085,-0.57876 4.14317,-0.17502c0.61684,0.18703 1.24239,-0.07956 1.39954,-0.59415c0.07769,-0.25577 0.02352,-0.525 -0.12749,-0.75298c-0.1516,-0.22886 -0.39945,-0.41555 -0.70719,-0.50707c-1.92648,-0.57438 -4.04867,-0.53553 -5.88719,0.24912c-1.84366,0.78455 -3.0718,2.1769 -3.55721,3.77799l0.00001,0zm-3.62078,-1.07757c-0.15458,0.51463 0.21764,1.07653 0.8335,1.25826c0.61763,0.1844 1.24418,-0.0826 1.39737,-0.5955c0.57861,-1.9023 2.02378,-3.53901 4.21174,-4.47144c2.18599,-0.93159 4.68487,-0.97567 6.97393,-0.29774c0.61664,0.18482 1.24221,-0.08176 1.39737,-0.5955c0.07769,-0.25577 0.02352,-0.525 -0.12808,-0.75386c-0.15101,-0.22796 -0.39886,-0.41466 -0.7066,-0.50619c-2.85422,-0.84815 -5.99199,-0.79099 -8.71638,0.37231c-2.72813,1.16148 -4.54538,3.21596 -5.26286,5.58965l0.00001,0zm-3.43872,-1.0227c-0.15458,0.51463 0.2202,1.07658 0.83607,1.25831c0.61507,0.18435 1.24161,-0.08265 1.3952,-0.59687l0.00118,0.00178c0.80031,-2.63509 2.80094,-4.90246 5.83088,-6.1937c3.02697,-1.28998 6.49032,-1.35114 9.66055,-0.41043c0.61606,0.18393 1.24161,-0.08265 1.39718,-0.59771c0.07728,-0.25446 0.02214,-0.52327 -0.12887,-0.75125s-0.39945,-0.41555 -0.70719,-0.50707c-3.73205,-1.10779 -7.83645,-1.03493 -11.40083,0.48635c-3.5697,1.51899 -5.94321,4.20676 -6.88416,7.31056z" fill="#472c2c"/>
  </g>
 </g>

</svg>